<?xml version="1.0" encoding="UTF-8" standalone="no"?><!-- Generator: Gravit.io --><svg xmlns="http://www.w3.org/2000/svg" xmlns:xlink="http://www.w3.org/1999/xlink" style="isolation:isolate" viewBox="0 0 650.92 205" width="650.92pt" height="205pt"><defs><clipPath id="_clipPath_gifinQKjokfgWcblbf9axrSzwc2AGLvC"><rect width="650.92" height="205"/></clipPath></defs><g clip-path="url(#_clipPath_gifinQKjokfgWcblbf9axrSzwc2AGLvC)"><text transform="matrix(1,0,0,1,2,156.6)" style="font-family:'Convergence';font-weight:400;font-size:200px;font-style:normal;letter-spacing:-15;fill:#5195dd;stroke:none;">fan</text><text transform="matrix(1,0,0,1,276.2,156.6)" style="font-family:'Convergence';font-weight:400;font-size:200px;font-style:normal;letter-spacing:-15;fill:#e8e8e8;stroke:none;">ta</text><g><path d=" M 644.236 10.728 Q 570.236 59.395 525.236 54.728 C 497.569 70.728 491.905 99.538 509.236 115.728 C 524.694 130.169 552.236 130.728 568.236 109.728 Q 604.236 62.728 644.236 10.728 Z " fill="rgb(81,149,221)"/><path d=" M 644.52 11.231 Q 619.18 96.098 636.586 137.857 C 629.215 168.956 603.25 182.663 582.761 170.718 C 564.485 160.063 556.032 133.845 571.546 112.483 Q 606.213 64.492 644.52 11.231 Z " fill="rgb(232,232,232)"/></g></g></svg>