<?xml version="1.0" encoding="UTF-8" standalone="no"?><!-- Generator: Gravit.io --><svg xmlns="http://www.w3.org/2000/svg" xmlns:xlink="http://www.w3.org/1999/xlink" style="isolation:isolate" viewBox="0 212.604 1200 68" width="1200pt" height="68pt"><defs><clipPath id="_clipPath_9DNPAU5jBvT9fplCKQGyfoKSPan6o05o"><rect width="1200" height="800"/></clipPath></defs><g clip-path="url(#_clipPath_9DNPAU5jBvT9fplCKQGyfoKSPan6o05o)"><rect width="1200" height="800" style="fill:rgb(70,70,70)"/><path d=" M -0.49 243.248 Q 287.34 291.731 631.978 245.248 Q 976.616 198.764 1200 253.248 L 1200 221.248 L -0.49 222.248 L -0.49 243.248 Z " fill="rgb(65,121,181)"/><linearGradient id="_lgradient_0" x1="0" y1="0.5" x2="1" y2="0.5" gradientTransform="matrix(-1209.025,33.72,2.935,105.228,1199.171,160.997)" gradientUnits="userSpaceOnUse"><stop offset="1.7391304347826098%" stop-opacity="1" style="stop-color:rgb(58,141,230)"/><stop offset="100%" stop-opacity="1" style="stop-color:rgb(42,78,117)"/></linearGradient><path d=" M 1200.466 234.482 Q 912.506 304.779 563.97 254.803 Q 215.435 204.826 -7.447 281.014 L -9.1 194.696 L 1199.278 164.847 L 1200.466 234.482 Z " fill="url(#_lgradient_0)"/><path d=" M 1199.998 233.892 Q 912.233 282.546 567.533 236.267 Q 222.833 189.987 -0.478 244.604 L -0.521 212.604 L 1199.97 212.892 L 1199.998 233.892 Z " fill="rgb(46,46,46)"/><radialGradient id="_rgradient_0" fx="0.5588930599056188" fy="0.06071586157182085" cx="0.5" cy="0.5" r="0.5" gradientTransform="matrix(709.865,312.798,-709.865,114.409,845.224,-179.056)" gradientUnits="userSpaceOnUse"><stop offset="0%" stop-opacity="1" style="stop-color:rgb(62,61,61)"/><stop offset="97.82608695652173%" stop-opacity="1" style="stop-color:rgb(46,46,46)"/></radialGradient><rect x="0" y="0" width="1200" height="213.604" transform="matrix(1,0,0,1,0,0)" fill="url(#_rgradient_0)"/><g><text transform="matrix(0.153,0,0,0.153,306,78.148)" style="font-family:'Convergence';font-weight:400;font-size:200px;font-style:normal;letter-spacing:-15;fill:#5195dd;stroke:none;">fan</text><text transform="matrix(0.153,0,0,0.153,347.886,78.148)" style="font-family:'Convergence';font-weight:400;font-size:200px;font-style:normal;letter-spacing:-15;fill:#e8e8e8;stroke:none;">ta</text><g><path d=" M 404.106 55.865 Q 392.802 63.3 385.928 62.587 C 381.702 65.031 380.837 69.432 383.484 71.905 C 385.845 74.111 390.053 74.196 392.497 70.988 Q 397.996 63.809 404.106 55.865 Z " fill="rgb(81,149,221)"/><path d=" M 404.15 55.942 Q 400.279 68.906 402.938 75.285 C 401.812 80.036 397.845 82.13 394.715 80.305 C 391.924 78.677 390.633 74.672 393.002 71.409 Q 398.298 64.078 404.15 55.942 Z " fill="rgb(232,232,232)"/></g></g><text transform="matrix(1,0,0,1,450,127.974)" style="font-family:'Convergence';font-weight:400;font-size:18px;font-style:normal;fill:#e8e8e8;stroke:none;">Make an SMS distribution group in seconds.</text><g/><linearGradient id="_lgradient_1" x1="0" y1="0.5" x2="1" y2="0.5" gradientTransform="matrix(1200,0,0,3,0,0)" gradientUnits="userSpaceOnUse"><stop offset="2.1739130434782608%" stop-opacity="1" style="stop-color:rgb(42,78,117)"/><stop offset="98.69565217391305%" stop-opacity="1" style="stop-color:rgb(65,121,181)"/><stop offset="99.56521739130434%" stop-opacity="1" style="stop-color:rgb(58,141,230)"/></linearGradient><rect x="0" y="0" width="1200" height="3" transform="matrix(1,0,0,1,0,0)" fill="url(#_lgradient_1)"/><text transform="matrix(1,0,0,1,306,537.088)" style="font-family:'Convergence';font-weight:400;font-size:16px;font-style:normal;fill:#e8e8e8;stroke:none;">Project fanta was created by 4 dudes meming during the HackTheMidlands </text><text transform="matrix(1,0,0,1,306,555.856)" style="font-family:'Convergence';font-weight:400;font-size:16px;font-style:normal;fill:#e8e8e8;stroke:none;">hackathon 2019 in Birmingham.</text><text transform="matrix(1,0,0,1,306,593.392)" style="font-family:'Convergence';font-weight:400;font-size:16px;font-style:normal;fill:#e8e8e8;stroke:none;">We hope you find great convenience from this simple app powered by Twilio!</text></g></svg>